<svg xmlns="http://www.w3.org/2000/svg" viewBox="0 0 64 64" width="64" height="64">
  <defs>
    <!-- Emerald gradient definitions -->
    <linearGradient id="emeraldGradient" x1="0%" y1="0%" x2="100%" y2="100%">
      <stop offset="0%" style="stop-color:#10b981;stop-opacity:1" />
      <stop offset="50%" style="stop-color:#059669;stop-opacity:1" />
      <stop offset="100%" style="stop-color:#047857;stop-opacity:1" />
    </linearGradient>
    
    <linearGradient id="lightEmeraldGradient" x1="0%" y1="0%" x2="100%" y2="100%">
      <stop offset="0%" style="stop-color:#34d399;stop-opacity:1" />
      <stop offset="100%" style="stop-color:#10b981;stop-opacity:1" />
    </linearGradient>
    
    <linearGradient id="darkEmeraldGradient" x1="0%" y1="0%" x2="100%" y2="100%">
      <stop offset="0%" style="stop-color:#047857;stop-opacity:1" />
      <stop offset="100%" style="stop-color:#064e3b;stop-opacity:1" />
    </linearGradient>
    
    <!-- Subtle shadow filter -->
    <filter id="shadow" x="-50%" y="-50%" width="200%" height="200%">
      <feDropShadow dx="1" dy="1" stdDeviation="1" flood-opacity="0.3" flood-color="#047857"/>
    </filter>
  </defs>
  
  <!-- Background circle with gradient -->
  <circle cx="32" cy="32" r="30" fill="url(#emeraldGradient)" filter="url(#shadow)"/>
  
  <!-- Chart bars representing analytics -->
  <g transform="translate(12, 16)">
    <!-- Bar 1 (shortest) -->
    <rect x="2" y="24" width="6" height="8" rx="1" fill="url(#lightEmeraldGradient)"/>
    
    <!-- Bar 2 (medium) -->
    <rect x="10" y="18" width="6" height="14" rx="1" fill="#ffffff" opacity="0.9"/>
    
    <!-- Bar 3 (tallest) -->
    <rect x="18" y="12" width="6" height="20" rx="1" fill="url(#lightEmeraldGradient)"/>
    
    <!-- Bar 4 (medium-tall) -->
    <rect x="26" y="15" width="6" height="17" rx="1" fill="#ffffff" opacity="0.9"/>
    
    <!-- Bar 5 (tall) -->
    <rect x="34" y="10" width="6" height="22" rx="1" fill="url(#lightEmeraldGradient)"/>
  </g>
  
  <!-- Trend line overlay -->
  <path d="M 15 36 Q 25 28 35 24 Q 45 20 52 18" 
        stroke="#ffffff" 
        stroke-width="2.5" 
        fill="none" 
        opacity="0.8"
        stroke-linecap="round"/>
  
  <!-- Data points on the trend line -->
  <circle cx="15" cy="36" r="2" fill="#ffffff" opacity="0.9"/>
  <circle cx="25" cy="28" r="2" fill="#ffffff" opacity="0.9"/>
  <circle cx="35" cy="24" r="2" fill="#ffffff" opacity="0.9"/>
  <circle cx="45" cy="20" r="2" fill="#ffffff" opacity="0.9"/>
  <circle cx="52" cy="18" r="2" fill="#ffffff" opacity="0.9"/>
  
  <!-- Subtle highlight for depth -->
  <circle cx="32" cy="32" r="30" fill="none" stroke="url(#lightEmeraldGradient)" stroke-width="1" opacity="0.3"/>
</svg>